[Header]
FileType HTR
DataType HTRS
FileVersion 1
NumSegments 64
NumFrames 4
DataFrameRate 24
EulerRotationOrder ZYX
CalibrationUnits mm
RotationUnits Degrees
GlobalAxisofGravity Y
BoneLengthAxis Y
ScaleFactor 1.0
[SegmentNames&Hierarchy]
Hips	GLOBAL
Spine	Hips
Spine1	Spine
Spine2	Spine1
Neck	Spine2
Head	Neck
LeftEye	Head
RightEye	Head
LeftShoulder	Spine2
LeftArm	LeftShoulder
LeftForeArm	LeftArm
LeftHand	LeftForeArm
LeftHandThumb1	LeftHand
LeftHandThumb2	LeftHandThumb1
LeftHandThumb3	LeftHandThumb2
LeftHandThumb4	LeftHandThumb3
LeftHandIndex1	LeftHand
LeftHandIndex2	LeftHandIndex1
LeftHandIndex3	LeftHandIndex2
LeftHandIndex4	LeftHandIndex3
LeftHandMiddle1	LeftHand
LeftHandMiddle2	LeftHandMiddle1
LeftHandMiddle3	LeftHandMiddle2
LeftHandMiddle4	LeftHandMiddle3
LeftHandRing1	LeftHand
LeftHandRing2	LeftHandRing1
LeftHandRing3	LeftHandRing2
LeftHandRing4	LeftHandRing3
LeftHandPinky1	LeftHand
LeftHandPinky2	LeftHandPinky1
LeftHandPinky3	LeftHandPinky2
LeftHandPinky4	LeftHandPinky3
RightShoulder	Spine2
RightArm	RightShoulder
RightForeArm	RightArm
RightHand	RightForeArm
RightHandPinky1	RightHand
RightHandPinky2	RightHandPinky1
RightHandPinky3	RightHandPinky2
RightHandPinky4	RightHandPinky3
RightHandRing1	RightHand
RightHandRing2	RightHandRing1
RightHandRing3	RightHandRing2
RightHandRing4	RightHandRing3
RightHandMiddle1	RightHand
RightHandMiddle2	RightHandMiddle1
RightHandMiddle3	RightHandMiddle2
RightHandMiddle4	RightHandMiddle3
RightHandIndex1	RightHand
RightHandIndex2	RightHandIndex1
RightHandIndex3	RightHandIndex2
RightHandIndex4	RightHandIndex3
RightHandThumb1	RightHand
RightHandThumb2	RightHandThumb1
RightHandThumb3	RightHandThumb2
RightHandThumb4	RightHandThumb3
LeftUpLeg	Hips
LeftLeg	LeftUpLeg
LeftFoot	LeftLeg
LeftToeBase	LeftFoot
RightUpLeg	Hips
RightLeg	RightUpLeg
RightFoot	RightLeg
RightToeBase	RightFoot
[BasePosition]
Hips	0	0	0	0	0	0	1
Spine	0	0	0	0	0	0	1
Spine1	0	0	0	0	0	0	1
Spine2	0	0	0	0	0	0	1
Neck	0	0	0	0	0	0	1
Head	0	0	0	0	0	0	1
LeftEye	0	0	0	0	0	0	1
RightEye	0	0	0	0	0	0	1
LeftShoulder	0	0	0	0	0	0	1
LeftArm	0	0	0	0	0	0	1
LeftForeArm	0	0	0	0	0	0	1
LeftHand	0	0	0	0	0	0	1
LeftHandThumb1	0	0	0	0	0	0	1
LeftHandThumb2	0	0	0	0	0	0	1
LeftHandThumb3	0	0	0	0	0	0	1
LeftHandThumb4	0	0	0	0	0	0	1
LeftHandIndex1	0	0	0	0	0	0	1
LeftHandIndex2	0	0	0	0	0	0	1
LeftHandIndex3	0	0	0	0	0	0	1
LeftHandIndex4	0	0	0	0	0	0	1
LeftHandMiddle1	0	0	0	0	0	0	1
LeftHandMiddle2	0	0	0	0	0	0	1
LeftHandMiddle3	0	0	0	0	0	0	1
LeftHandMiddle4	0	0	0	0	0	0	1
LeftHandRing1	0	0	0	0	0	0	1
LeftHandRing2	0	0	0	0	0	0	1
LeftHandRing3	0	0	0	0	0	0	1
LeftHandRing4	0	0	0	0	0	0	1
LeftHandPinky1	0	0	0	0	0	0	1
LeftHandPinky2	0	0	0	0	0	0	1
LeftHandPinky3	0	0	0	0	0	0	1
LeftHandPinky4	0	0	0	0	0	0	1
RightShoulder	0	0	0	0	0	0	1
RightArm	0	0	0	0	0	0	1
RightForeArm	0	0	0	0	0	0	1
RightHand	0	0	0	0	0	0	1
RightHandPinky1	0	0	0	0	0	0	1
RightHandPinky2	0	0	0	0	0	0	1
RightHandPinky3	0	0	0	0	0	0	1
RightHandPinky4	0	0	0	0	0	0	1
RightHandRing1	0	0	0	0	0	0	1
RightHandRing2	0	0	0	0	0	0	1
RightHandRing3	0	0	0	0	0	0	1
RightHandRing4	0	0	0	0	0	0	1
RightHandMiddle1	0	0	0	0	0	0	1
RightHandMiddle2	0	0	0	0	0	0	1
RightHandMiddle3	0	0	0	0	0	0	1
RightHandMiddle4	0	0	0	0	0	0	1
RightHandIndex1	0	0	0	0	0	0	1
RightHandIndex2	0	0	0	0	0	0	1
RightHandIndex3	0	0	0	0	0	0	1
RightHandIndex4	0	0	0	0	0	0	1
RightHandThumb1	0	0	0	0	0	0	1
RightHandThumb2	0	0	0	0	0	0	1
RightHandThumb3	0	0	0	0	0	0	1
RightHandThumb4	0	0	0	0	0	0	1
LeftUpLeg	0	0	0	0	0	0	1
LeftLeg	0	0	0	0	0	0	1
LeftFoot	0	0	0	0	0	0	1
LeftToeBase	0	0	0	0	0	0	1
RightUpLeg	0	0	0	0	0	0	1
RightLeg	0	0	0	0	0	0	1
RightFoot	0	0	0	0	0	0	1
RightToeBase	0	0	0	0	0	0	1
[Hips]
21	-16.67638016	1009.459961	1.466782093	-1.088865519	1.359126806	4.885854721	1.0
22	-16.3008213	1006.88855	0.1067972183	-0.7221999764	0.203799516	5.017527103	1.0
23	-16.08381653	994.739502	-4.712164879	-1.389944911	-0.3861848712	4.954863548	1.0
24	-15.92704773	976.9050293	-9.507671356	-2.432934046	-0.6352225542	4.658090115	1.0
[Spine]
21	9.234152094e-05	101.8158798	1.31520927	2.845305681	1.046658754	-2.281809092	1.0
22	9.234152094e-05	101.8158798	1.31520927	3.15267086	1.319088578	-2.194668293	1.0
23	9.234152094e-05	101.8158798	1.31520927	4.773425102	1.462080359	-2.41018343	1.0
24	9.234152094e-05	101.8158798	1.31520927	6.621598721	1.417154193	-2.562076807	1.0
[Spine1]
21	2.519402869e-06	100.8345108	-10.00804329	-4.632391453	0.1735668331	2.167728424	1.0
22	2.519402869e-06	100.8345108	-10.00804329	-4.668817043	0.2302027643	2.090991735	1.0
23	2.519402869e-06	100.8345108	-10.00804329	-4.477742195	0.2363043427	1.966494441	1.0
24	2.519402869e-06	100.8345108	-10.00804329	-4.243280411	0.1912810653	1.843851089	1.0
[Spine2]
21	3.4574864e-06	91.00010681	-13.73417091	-4.648523331	-0.4965147078	-0.8004724383	1.0
22	3.4574864e-06	91.00010681	-13.73417091	-4.686358929	-0.4415781796	-0.8775315285	1.0
23	3.4574864e-06	91.00010681	-13.73417091	-4.496481895	-0.4247964323	-1.001146793	1.0
24	3.4574864e-06	91.00010681	-13.73417091	-4.259133339	-0.4569361508	-1.123333693	1.0
[Neck]
21	6.334285445e-06	166.7166901	-25.16167831	9.465722084	0.2566350102	-0.8160787225	1.0
22	6.334285445e-06	166.7166901	-25.16167831	9.355667114	0.3617878854	-1.08067584	1.0
23	6.334285445e-06	166.7166901	-25.16167831	9.176146507	0.4244022369	-1.02638638	1.0
24	6.334285445e-06	166.7166901	-25.16167831	9.002491951	0.4662722945	-0.9108867049	1.0
[Head]
21	-4.242318937e-06	96.17874908	16.85007477	10.5883913	2.498391151	-3.432463884	1.0
22	-4.242318937e-06	96.17874908	16.85007477	11.03541756	2.97774291	-3.393271208	1.0
23	-4.242318937e-06	96.17874908	16.85007477	10.99908257	3.287403107	-2.555751085	1.0
24	-4.242318937e-06	96.17874908	16.85007477	10.72150326	3.452899933	-1.601946235	1.0
[LeftEye]
21	30.67560577	64.09507751	92.83554077	0	0	0	1.0
22	30.67560577	64.09507751	92.83554077	0	0	0	1.0
23	30.67560577	64.09507751	92.83554077	0	0	0	1.0
24	30.67560577	64.09507751	92.83554077	0	0	0	1.0
[RightEye]
21	-30.67550468	64.09500122	92.83547211	0	0	0	1.0
22	-30.67550468	64.09500122	92.83547211	0	0	0	1.0
23	-30.67550468	64.09500122	92.83547211	0	0	0	1.0
24	-30.67550468	64.09500122	92.83547211	0	0	0	1.0
[LeftShoulder]
21	45.70446396	109.4598465	-26.27988052	12.58330727	-5.053400517	26.01787567	1.0
22	45.70446396	109.4598465	-26.27988052	14.77899456	-3.664773703	22.8326416	1.0
23	45.70446396	109.4598465	-26.27988052	17.93528366	-3.620831966	17.29426575	1.0
24	45.70446396	109.4598465	-26.27988052	21.05910301	-4.177965641	12.35049534	1.0
[LeftArm]
21	105.9236984	-5.245829105	-22.32120132	-73.97928619	-9.924599648	26.78475571	1.0
22	105.9236984	-5.245829105	-22.32120132	-80.90529633	-7.474081516	27.24268723	1.0
23	105.9236984	-5.245829105	-22.32120132	-85.44172668	-5.054547787	28.86379242	1.0
24	105.9236984	-5.245829105	-22.32120132	-88.21099091	-3.052537918	30.46057892	1.0
[LeftForeArm]
21	278.4151917	-0.0008942864952	0.0003745891154	-16.12451363	-37.37419128	26.95928955	1.0
22	278.4151917	-0.0008942864952	0.0003745891154	-19.18398476	-50.7058754	31.20093536	1.0
23	278.4151917	-0.0008942864952	0.0003745891154	-25.50306511	-62.43316269	37.17351151	1.0
24	278.4151917	-0.0008942864952	0.0003745891154	-32.34822464	-71.60296631	43.35707092	1.0
[LeftHand]
21	283.2883911	-0.0001744071778	0.0003780452244	-76.49908447	-35.18465805	-2.560647011	1.0
22	283.2883911	-0.0001744071778	0.0003780452244	-76.50708771	-42.54144287	-5.743041039	1.0
23	283.2883911	-0.0001744071778	0.0003780452244	-76.09905243	-46.64363098	-9.909506798	1.0
24	283.2883911	-0.0001744071778	0.0003780452244	-75.59456635	-49.51080322	-13.69500732	1.0
[LeftHandThumb1]
21	24.66140366	-15.7504921	26.82413483	-22.46109581	12.90419006	-7.774988174	1.0
22	24.66140366	-15.7504921	26.82413483	-23.83017159	13.37508392	-8.801820755	1.0
23	24.66140366	-15.7504921	26.82413483	-23.61906815	13.30409241	-8.643382072	1.0
24	24.66140366	-15.7504921	26.82413483	-23.21471214	13.16649151	-8.340009689	1.0
[LeftHandThumb2]
21	32.29803848	-18.6469059	18.64681244	4.128787041	27.15164566	8.656031609	1.0
22	32.29803848	-18.6469059	18.64681244	3.411364079	27.23698616	8.258412361	1.0
23	32.29803848	-18.6469059	18.64681244	3.521627665	27.22412109	8.319726944	1.0
24	32.29803848	-18.6469059	18.64681244	3.733190298	27.19918633	8.437168121	1.0
[LeftHandThumb3]
21	26.52565002	-15.31492996	15.31471634	-2.611959219	25.04292107	15.75460052	1.0
22	26.52565002	-15.31492996	15.31471634	-3.127323151	25.51743126	15.39693356	1.0
23	26.52565002	-15.31492996	15.31471634	-3.047883034	25.44467545	15.4522419	1.0
24	26.52565002	-15.31492996	15.31471634	-2.895694971	25.30489731	15.5580225	1.0
[LeftHandThumb4]
21	19.54566956	-11.2850008	11.28492165	0	0	0	1.0
22	19.54566956	-11.2850008	11.28492165	0	0	0	1.0
23	19.54566956	-11.2850008	11.28492165	0	0	0	1.0
24	19.54566956	-11.2850008	11.28492165	0	0	0	1.0
[LeftHandIndex1]
21	91.09301758	-5.170834064	22.6007309	0.04437581077	7.346707344	-36.16136169	1.0
22	91.09301758	-5.170834064	22.6007309	0.07303564996	7.338857651	-37.38548279	1.0
23	91.09301758	-5.170834064	22.6007309	0.06873200834	7.340222359	-37.1974411	1.0
24	91.09301758	-5.170834064	22.6007309	0.06037123501	7.342683315	-36.83654404	1.0
[LeftHandIndex2]
21	36.76409531	-6.939138257e-05	0.0002924251603	1.952682972	0.8793472052	-5.891458511	1.0
22	36.76409531	-6.939138257e-05	0.0002924251603	1.961244702	0.8515128493	-5.585739613	1.0
23	36.76409531	-6.939138257e-05	0.0002924251603	1.959939241	0.8557915688	-5.63270998	1.0
24	36.76409531	-6.939138257e-05	0.0002924251603	1.957424283	0.8639991283	-5.722848892	1.0
[LeftHandIndex3]
21	28.83062553	0.000385119667	-0.0004276481632	1.767212868	1.427472591	-12.49773598	1.0
22	28.83062553	0.000385119667	-0.0004276481632	1.814249754	1.435628176	-12.54402733	1.0
23	28.83062553	0.000385119667	-0.0004276481632	1.807025671	1.434374571	-12.53691959	1.0
24	28.83062553	0.000385119667	-0.0004276481632	1.793159604	1.431969643	-12.52327633	1.0
[LeftHandIndex4]
21	23.92720032	0.0003702590766	0.0003355443478	0	0	0	1.0
22	23.92720032	0.0003702590766	0.0003355443478	0	0	0	1.0
23	23.92720032	0.0003702590766	0.0003355443478	0	0	0	1.0
24	23.92720032	0.0003702590766	0.0003355443478	0	0	0	1.0
[LeftHandMiddle1]
21	95.33401489	-0.000339240476	0.0001393702551	0.3101878166	7.276519775	-39.02662659	1.0
22	95.33401489	-0.000339240476	0.0001393702551	0.2720616162	7.417559147	-40.34584808	1.0
23	95.33401489	-0.000339240476	0.0001393702551	0.2780295312	7.396080971	-40.1431427	1.0
24	95.33401489	-0.000339240476	0.0001393702551	0.2893704474	7.354671478	-39.75415802	1.0
[LeftHandMiddle2]
21	36.98236847	1.961359158e-05	0.0001791696704	-8.774848938	2.271194935	-5.842365265	1.0
22	36.98236847	1.961359158e-05	0.0001791696704	-9.1183424	2.333625793	-5.702176571	1.0
23	36.98236847	1.961359158e-05	0.0001791696704	-9.065571785	2.324038267	-5.723722935	1.0
24	36.98236847	1.961359158e-05	0.0001791696704	-8.964298248	2.305634737	-5.765063763	1.0
[LeftHandMiddle3]
21	29.50921631	-0.0003937608562	0.0001644795993	0.5268957615	2.536705017	-23.48898697	1.0
22	29.50921631	-0.0003937608562	0.0001644795993	0.5423543453	2.594794035	-24.03665161	1.0
23	29.50921631	-0.0003937608562	0.0001644795993	0.5400164127	2.585882187	-23.95252419	1.0
24	29.50921631	-0.0003937608562	0.0001644795993	0.5354912877	2.568766594	-23.79105949	1.0
[LeftHandMiddle4]
21	28.3390255	-0.0003893481917	-9.504223272e-05	0	0	0	1.0
22	28.3390255	-0.0003893481917	-9.504223272e-05	0	0	0	1.0
23	28.3390255	-0.0003893481917	-9.504223272e-05	0	0	0	1.0
24	28.3390255	-0.0003893481917	-9.504223272e-05	0	0	0	1.0
[LeftHandRing1]
21	91.04527283	-0.4393950403	-18.65084648	-3.990736485	9.523441315	-28.98083687	1.0
22	91.04527283	-0.4393950403	-18.65084648	-4.081486702	9.772389412	-29.85913849	1.0
23	91.04527283	-0.4393950403	-18.65084648	-4.067481041	9.734215736	-29.72416687	1.0
24	91.04527283	-0.4393950403	-18.65084648	-4.040667057	9.660881996	-29.46517563	1.0
[LeftHandRing2]
21	31.54026794	-6.55346812e-05	0.000104257444	-11.01318455	-0.822152555	-15.20722389	1.0
22	31.54026794	-6.55346812e-05	0.000104257444	-11.27707386	-0.9018434286	-14.99781799	1.0
23	31.54026794	-6.55346812e-05	0.000104257444	-11.23653221	-0.8895925283	-15.0299902	1.0
24	31.54026794	-6.55346812e-05	0.000104257444	-11.15872669	-0.8660903573	-15.09173203	1.0
[LeftHandRing3]
21	29.37672424	-0.0004545861739	-6.864757597e-05	-9.112412453	0.2858392596	-17.74134254	1.0
22	29.37672424	-0.0004545861739	-6.864757597e-05	-9.386417389	0.2517182529	-17.95096779	1.0
23	29.37672424	-0.0004545861739	-6.864757597e-05	-9.344314575	0.2569583058	-17.91876221	1.0
24	29.37672424	-0.0004545861739	-6.864757597e-05	-9.263521194	0.2670166194	-17.85695457	1.0
[LeftHandRing4]
21	26.47452545	-0.0004980441299	7.070515267e-07	0	0	0	1.0
22	26.47452545	-0.0004980441299	7.070515267e-07	0	0	0	1.0
23	26.47452545	-0.0004980441299	7.070515267e-07	0	0	0	1.0
24	26.47452545	-0.0004980441299	7.070515267e-07	0	0	0	1.0
[LeftHandPinky1]
21	80.77777863	-4.886682034	-38.06066895	-22.46606827	11.14202595	-40.34612656	1.0
22	80.77777863	-4.886682034	-38.06066895	-23.17213249	11.44521618	-41.72048569	1.0
23	80.77777863	-4.886682034	-38.06066895	-23.06354713	11.39884186	-41.50926208	1.0
24	80.77777863	-4.886682034	-38.06066895	-22.85527039	11.30963707	-41.10398483	1.0
[LeftHandPinky2]
21	36.00034332	-2.252215199e-05	-0.0002623879409	10.85165119	-6.247262955	-11.87914181	1.0
22	36.00034332	-2.252215199e-05	-0.0002623879409	11.3425169	-6.5632658	-11.82141876	1.0
23	36.00034332	-2.252215199e-05	-0.0002623879409	11.2671051	-6.514731407	-11.83027649	1.0
24	36.00034332	-2.252215199e-05	-0.0002623879409	11.12237644	-6.421570778	-11.84728813	1.0
[LeftHandPinky3]
21	21.14211655	0.0001953828178	-2.864415183e-05	-20.97719193	9.343016624	-13.2071867	1.0
22	21.14211655	0.0001953828178	-2.864415183e-05	-21.68785286	9.674583435	-13.02661896	1.0
23	21.14211655	0.0001953828178	-2.864415183e-05	-21.57868767	9.62364769	-13.0543623	1.0
24	21.14211655	0.0001953828178	-2.864415183e-05	-21.36917305	9.525891304	-13.10760593	1.0
[LeftHandPinky4]
21	19.7568264	0.0001240565616	-0.0004430140834	0	0	0	1.0
22	19.7568264	0.0001240565616	-0.0004430140834	0	0	0	1.0
23	19.7568264	0.0001240565616	-0.0004430140834	0	0	0	1.0
24	19.7568264	0.0001240565616	-0.0004430140834	0	0	0	1.0
[RightShoulder]
21	-45.69969559	109.4617615	-26.28017426	9.095154762	17.86232948	-21.32386971	1.0
22	-45.69969559	109.4617615	-26.28017426	11.14090443	18.65797043	-22.96801186	1.0
23	-45.69969559	109.4617615	-26.28017426	15.4163208	16.33145905	-21.81730652	1.0
24	-45.69969559	109.4617615	-26.28017426	19.67280388	13.43522263	-20.1153698	1.0
[RightArm]
21	-105.9284363	-5.247983932	-22.32098579	-69.24615479	3.45324111	-20.89253616	1.0
22	-105.9284363	-5.247983932	-22.32098579	-75.41599274	2.244982004	-20.69477272	1.0
23	-105.9284363	-5.247983932	-22.32098579	-82.25602722	2.414881468	-22.42173195	1.0
24	-105.9284363	-5.247983932	-22.32098579	-88.20579529	3.311510324	-24.32069778	1.0
[RightForeArm]
21	-278.4151917	-0.0003307921579	0.0001167631053	-26.6681118	39.21428299	-17.08652687	1.0
22	-278.4151917	-0.0003307921579	0.0001167631053	-21.89203835	53.39349365	-16.12451553	1.0
23	-278.4151917	-0.0003307921579	0.0001167631053	-16.09068871	65.74240112	-11.41866875	1.0
24	-278.4151917	-0.0003307921579	0.0001167631053	-10.70658398	75.96703339	-6.106099606	1.0
[RightHand]
21	-283.2883911	-1.581417109e-06	0.000558160129	-65.69974518	29.67438507	9.628755569	1.0
22	-283.2883911	-1.581417109e-06	0.000558160129	-64.80527496	35.35659409	15.29897308	1.0
23	-283.2883911	-1.581417109e-06	0.000558160129	-64.72875977	37.81347275	18.36606598	1.0
24	-283.2883911	-1.581417109e-06	0.000558160129	-64.82049561	39.42802048	20.5549984	1.0
[RightHandPinky1]
21	-80.76674652	-4.88459301	-38.06010437	-14.12310028	-6.727824211	23.61465645	1.0
22	-80.76674652	-4.88459301	-38.06010437	-15.94048786	-7.577788353	27.32242203	1.0
23	-80.76674652	-4.88459301	-38.06010437	-17.7213974	-8.381458282	30.93311501	1.0
24	-80.76674652	-4.88459301	-38.06010437	-19.38270378	-9.118483543	34.29259872	1.0
[RightHandPinky2]
21	-36.00034332	0.0003967665543	0.0005081442068	5.095343113	2.777171612	12.50979996	1.0
22	-36.00034332	0.0003967665543	0.0005081442068	6.425889492	3.634275913	12.3335371	1.0
23	-36.00034332	0.0003967665543	0.0005081442068	7.718954563	4.466699123	12.16294289	1.0
24	-36.00034332	0.0003967665543	0.0005081442068	8.920873642	5.240181446	12.00461102	1.0
[RightHandPinky3]
21	-21.14211655	0.0001513792522	0.0001479376951	-12.53390026	-5.110692024	15.43560982	1.0
22	-21.14211655	0.0001513792522	0.0001479376951	-14.47954941	-6.023278236	14.96574688	1.0
23	-21.14211655	0.0001513792522	0.0001479376951	-16.36762047	-6.909745216	14.50922298	1.0
24	-21.14211655	0.0001513792522	0.0001479376951	-18.12134171	-7.733471394	14.08476448	1.0
[RightHandPinky4]
21	-19.7568264	-0.000185219571	-9.839841368e-06	0	0	0	1.0
22	-19.7568264	-0.000185219571	-9.839841368e-06	0	0	0	1.0
23	-19.7568264	-0.000185219571	-9.839841368e-06	0	0	0	1.0
24	-19.7568264	-0.000185219571	-9.839841368e-06	0	0	0	1.0
[RightHandRing1]
21	-91.03588104	-0.4391434789	-18.65072441	-2.885643721	-5.994363785	18.03464127	1.0
22	-91.03588104	-0.4391434789	-18.65072441	-3.080391645	-6.659886837	20.41664886	1.0
23	-91.03588104	-0.4391434789	-18.65072441	-3.277047634	-7.298749924	22.73426819	1.0
24	-91.03588104	-0.4391434789	-18.65072441	-3.462975502	-7.888897419	24.88979721	1.0
[RightHandRing2]
21	-31.54026794	0.0002399729856	0.0004885121016	-7.846144676	0.2456105798	17.67912292	1.0
22	-31.54026794	0.0002399729856	0.0004885121016	-8.566371918	0.4507762194	17.10437393	1.0
23	-31.54026794	0.0002399729856	0.0004885121016	-9.266263962	0.6500124931	16.54623985	1.0
24	-31.54026794	0.0002399729856	0.0004885121016	-9.916787148	0.8351671696	16.02765846	1.0
[RightHandRing3]
21	-29.37672424	-0.0004160065437	-0.0003966063377	-5.84024334	-0.3721996844	15.27532482	1.0
22	-29.37672424	-0.0004160065437	-0.0003966063377	-6.581290722	-0.2686443627	15.84483814	1.0
23	-29.37672424	-0.0004160065437	-0.0003966063377	-7.301316261	-0.1678101122	16.3977356	1.0
24	-29.37672424	-0.0004160065437	-0.0003966063377	-7.970531464	-0.07402317226	16.91140175	1.0
[RightHandRing4]
21	-26.47452545	0.0002460821415	-2.294923434e-05	0	0	0	1.0
22	-26.47452545	0.0002460821415	-2.294923434e-05	0	0	0	1.0
23	-26.47452545	0.0002460821415	-2.294923434e-05	0	0	0	1.0
24	-26.47452545	0.0002460821415	-2.294923434e-05	0	0	0	1.0
[RightHandMiddle1]
21	-95.32502747	-0.0001631230261	0.0001679184206	0.776374042	-4.806785107	22.84739685	1.0
22	-95.32502747	-0.0001631230261	0.0001679184206	0.7709507942	-5.207724094	26.42406273	1.0
23	-95.32502747	-0.0001631230261	0.0001679184206	0.7513144016	-5.579152584	29.9015007	1.0
24	-95.32502747	-0.0001631230261	0.0001679184206	0.7271467447	-5.915773869	33.13450241	1.0
[RightHandMiddle2]
21	-36.98236847	0.000150669599	-0.0002254552383	-4.710868835	-1.377440333	7.526708126	1.0
22	-36.98236847	0.000150669599	-0.0002254552383	-5.64688158	-1.55536139	7.148861885	1.0
23	-36.98236847	0.000150669599	-0.0002254552383	-6.555939674	-1.728224993	6.781897545	1.0
24	-36.98236847	0.000150669599	-0.0002254552383	-7.400655746	-1.888855934	6.440895557	1.0
[RightHandMiddle3]
21	-29.50921631	-3.113244929e-06	-3.03402544e-06	0.3587450087	-1.487960815	17.0587368	1.0
22	-29.50921631	-3.113244929e-06	-3.03402544e-06	0.4251754582	-1.622117043	18.55182838	1.0
23	-29.50921631	-3.113244929e-06	-3.03402544e-06	0.4862873554	-1.751307726	20.00192261	1.0
24	-29.50921631	-3.113244929e-06	-3.03402544e-06	0.5415590405	-1.870804906	21.34938622	1.0
[RightHandMiddle4]
21	-28.3390255	8.05324089e-05	0.0005378770875	0	0	0	1.0
22	-28.3390255	8.05324089e-05	0.0005378770875	0	0	0	1.0
23	-28.3390255	8.05324089e-05	0.0005378770875	0	0	0	1.0
24	-28.3390255	8.05324089e-05	0.0005378770875	0	0	0	1.0
[RightHandIndex1]
21	-91.08280945	-5.167889595	22.60116386	-0.2829110324	-6.700855255	21.09443474	1.0
22	-91.08280945	-5.167889595	22.60116386	-0.1178026646	-6.686300278	24.42202759	1.0
23	-91.08280945	-5.167889595	22.60116386	0.03036932647	-6.657324791	27.65366745	1.0
24	-91.08280945	-5.167889595	22.60116386	0.1629191488	-6.623322964	30.65640831	1.0
[RightHandIndex2]
21	-36.76409531	0.0001922715601	0.0003235567128	1.855293155	-1.00909555	9.524478912	1.0
22	-36.76409531	0.0001922715601	0.0003235567128	1.880818367	-0.9510759115	8.6903162	1.0
23	-36.76409531	0.0001922715601	0.0003235567128	1.904499292	-0.89456141	7.880315781	1.0
24	-36.76409531	0.0001922715601	0.0003235567128	1.92600596	-0.841981113	7.127716064	1.0
[RightHandIndex3]
21	-28.83062553	-0.0004960121587	0.0004044897505	1.237196088	-1.083364487	11.97570705	1.0
22	-28.83062553	-0.0004960121587	0.0004044897505	1.365970612	-1.103032589	12.1022253	1.0
23	-28.83062553	-0.0004960121587	0.0004044897505	1.490988016	-1.122140169	12.22508335	1.0
24	-28.83062553	-0.0004960121587	0.0004044897505	1.607137203	-1.139894366	12.33923244	1.0
[RightHandIndex4]
21	-23.92720032	0.0002681470069	0.0002802013478	0	0	0	1.0
22	-23.92720032	0.0002681470069	0.0002802013478	0	0	0	1.0
23	-23.92720032	0.0002681470069	0.0002802013478	0	0	0	1.0
24	-23.92720032	0.0002681470069	0.0002802013478	0	0	0	1.0
[RightHandThumb1]
21	-24.64805984	-15.72714233	26.82626534	-8.470799446	-3.920427084	-3.058781862	1.0
22	-24.64805984	-15.72714233	26.82626534	-11.84607124	-5.640470028	-0.7022184134	1.0
23	-24.64805984	-15.72714233	26.82626534	-15.2174921	-7.163038254	1.68961668	1.0
24	-24.64805984	-15.72714233	26.82626534	-18.39164543	-8.50711441	3.956250191	1.0
[RightHandThumb2]
21	-32.29771805	-18.6470871	18.64718437	13.49151611	-27.52723122	-14.28203106	1.0
22	-32.29771805	-18.6470871	18.64718437	11.53788376	-27.8648262	-13.30894184	1.0
23	-32.29771805	-18.6470871	18.64718437	9.628919601	-28.16353607	-12.32799625	1.0
24	-32.29771805	-18.6470871	18.64718437	7.850293636	-28.42745209	-11.40081692	1.0
[RightHandThumb3]
21	-26.52605057	-15.31449318	15.31445599	7.167529106	-24.5772438	-21.60410118	1.0
22	-26.52605057	-15.31449318	15.31445599	5.861234188	-25.95011902	-20.66313171	1.0
23	-26.52605057	-15.31449318	15.31445599	4.556679726	-27.26845169	-19.70237732	1.0
24	-26.52605057	-15.31449318	15.31445599	3.327193737	-28.48620987	-18.78761864	1.0
[RightHandThumb4]
21	-19.54580498	-11.28461742	11.28507042	0	0	0	1.0
22	-19.54580498	-11.28461742	11.28507042	0	0	0	1.0
23	-19.54580498	-11.28461742	11.28507042	0	0	0	1.0
24	-19.54580498	-11.28461742	11.28507042	0	0	0	1.0
[LeftUpLeg]
21	82.07781982	-67.51714325	-15.99555588	-8.521636963	13.57901669	4.624778271	1.0
22	82.07781982	-67.51714325	-15.99555588	-9.508612633	13.58874512	4.393173218	1.0
23	82.07781982	-67.51714325	-15.99555588	-11.83005619	14.0796833	5.164432526	1.0
24	82.07781982	-67.51714325	-15.99555588	-14.50870991	14.74724102	6.453645229	1.0
[LeftLeg]
21	-4.110157988e-06	-443.7047119	2.846426487	21.05273628	3.238092661	-2.889259815	1.0
22	-4.110157988e-06	-443.7047119	2.846426487	22.39420319	4.317123413	-2.420185089	1.0
23	-4.110157988e-06	-443.7047119	2.846426487	28.38531876	4.777767181	-2.752302885	1.0
24	-4.110157988e-06	-443.7047119	2.846426487	35.89844131	4.949292183	-3.433413029	1.0
[LeftFoot]
21	4.716393505e-06	-444.278717	-29.82190704	-8.799675941	1.04617238	-4.661610603	1.0
22	4.716393505e-06	-444.278717	-29.82190704	-9.48753643	0.9779331088	-4.9066329	1.0
23	4.716393505e-06	-444.278717	-29.82190704	-12.28395367	0.6131386757	-4.873902798	1.0
24	4.716393505e-06	-444.278717	-29.82190704	-15.80852318	0.1566724181	-4.732608795	1.0
[LeftToeBase]
21	-2.960988058e-05	-87.28669739	107.1055984	-3.56479001	-5.76130833e-06	2.083850177e-06	1.0
22	-2.960988058e-05	-87.28669739	107.1055984	-3.48158884	-1.609503556e-06	-1.163967227e-06	1.0
23	-2.960988058e-05	-87.28669739	107.1055984	-3.402065277	-1.945601298e-06	2.012960181e-07	1.0
24	-2.960988058e-05	-87.28669739	107.1055984	-3.299637794	-2.538922672e-06	1.487061127e-06	1.0
[RightUpLeg]
21	-82.07795715	-67.51662445	-15.99559402	-21.52311134	-44.37835312	-3.118532419	1.0
22	-82.07795715	-67.51662445	-15.99559402	-23.26023865	-44.24300385	-2.421300888	1.0
23	-82.07795715	-67.51662445	-15.99559402	-25.61608124	-43.99269104	-2.43557024	1.0
24	-82.07795715	-67.51662445	-15.99559402	-28.01724243	-43.63217163	-2.695148468	1.0
[RightLeg]
21	8.435572454e-07	-443.7053833	2.861563921	26.9477787	7.002895832	-7.13097477	1.0
22	8.435572454e-07	-443.7053833	2.861563921	28.12932587	7.900477886	-6.58816576	1.0
23	8.435572454e-07	-443.7053833	2.861563921	33.1738205	8.360099792	-6.067470551	1.0
24	8.435572454e-07	-443.7053833	2.861563921	39.60348892	8.55505085	-5.726135254	1.0
[RightFoot]
21	9.644581951e-06	-444.2773132	-29.83789063	-6.413780212	2.835780144	6.77278471	1.0
22	9.644581951e-06	-444.2773132	-29.83789063	-6.853516102	2.918626547	6.357934952	1.0
23	9.644581951e-06	-444.2773132	-29.83789063	-8.992073059	3.243914604	5.820002556	1.0
24	9.644581951e-06	-444.2773132	-29.83789063	-11.81345463	3.684166193	5.376458645	1.0
[RightToeBase]
21	-2.360438157e-05	-87.28668976	107.1056061	0.08607109636	-8.220334166e-06	-1.119183617e-05	1.0
22	-2.360438157e-05	-87.28668976	107.1056061	0.1999747306	-3.694111729e-05	4.962573257e-06	1.0
23	-2.360438157e-05	-87.28668976	107.1056061	0.1962440312	-1.912971857e-05	1.923894342e-05	1.0
24	-2.360438157e-05	-87.28668976	107.1056061	0.1558738798	-6.879730563e-07	1.537368553e-05	1.0
[EndOfFile]
